<svg xmlns="http://www.w3.org/2000/svg"  viewBox="0 0 48 48" width="512px" height="512px"><linearGradient id="amp~lv5d4rLnGMGb5PnfLa" x1="-7.018" x2="39.387" y1="9.308" y2="33.533" gradientUnits="userSpaceOnUse"><stop offset="0" stop-color="#0082ad"/><stop offset=".909" stop-color="#224d78"/></linearGradient><path fill="url(#amp~lv5d4rLnGMGb5PnfLa)" d="M44.5,41h-41C2.119,41,1,39.881,1,38.5v-31C1,6.119,2.119,5,3.5,5h11.597 c1.519,0,2.955,0.69,3.904,1.877L21.5,10h23c1.381,0,2.5,1.119,2.5,2.5v26C47,39.881,45.881,41,44.5,41z"/><linearGradient id="amp~lv5d4rLnGMGb5PnfLb" x1="16.865" x2="44.965" y1="39.287" y2="39.792" gradientUnits="userSpaceOnUse"><stop offset="0" stop-color="#2c5a8e"/><stop offset=".464" stop-color="#453478"/></linearGradient><path fill="url(#amp~lv5d4rLnGMGb5PnfLb)" d="M1,37.875V38.5C1,39.881,2.119,41,3.5,41h41c1.381,0,2.5-1.119,2.5-2.5v-0.625H1z"/><linearGradient id="amp~lv5d4rLnGMGb5PnfLc" x1="-4.879" x2="35.968" y1="12.764" y2="30.778" gradientUnits="userSpaceOnUse"><stop offset=".34" stop-color="#8aedfb"/><stop offset=".515" stop-color="#87e8f9"/><stop offset=".715" stop-color="#7ddaf2"/><stop offset=".928" stop-color="#6ec4e8"/><stop offset="1" stop-color="#67bae3"/></linearGradient><path fill="url(#amp~lv5d4rLnGMGb5PnfLc)" d="M44.5,11h-23l-1.237,0.824C19.114,12.591,17.763,13,16.381,13H3.5C2.119,13,1,14.119,1,15.5 v22C1,38.881,2.119,40,3.5,40h41c1.381,0,2.5-1.119,2.5-2.5v-24C47,12.119,45.881,11,44.5,11z"/><radialGradient id="amp~lv5d4rLnGMGb5PnfLd" cx="37.836" cy="49.317" r="53.875" gradientUnits="userSpaceOnUse"><stop offset=".199" stop-color="#8664c3"/><stop offset=".242" stop-color="#826bc5"/><stop offset=".601" stop-color="#65a2d8"/><stop offset=".76" stop-color="#68caea"/><stop offset=".915" stop-color="#6aebf9"/><stop offset="1" stop-color="#6bf7ff"/></radialGradient><path fill="url(#amp~lv5d4rLnGMGb5PnfLd)" d="M44.5,40h-41C2.119,40,1,38.881,1,37.5v-21C1,15.119,2.119,14,3.5,14h13.256 c1.382,0,2.733-0.409,3.883-1.176L21.875,12H44.5c1.381,0,2.5,1.119,2.5,2.5v23C47,38.881,45.881,40,44.5,40z"/><g><path d="M24,37.77c-0.503,0-1.007-0.096-1.486-0.287l-7.628-3.051C13.74,33.973,13,32.88,13,31.646V21.354 c0-1.234,0.74-2.327,1.886-2.786l7.628-3.051c0.958-0.383,2.014-0.383,2.972,0l7.628,3.051C34.26,19.027,35,20.12,35,21.354v10.292 c0,1.234-0.74,2.327-1.886,2.786l-7.628,3.051C25.007,37.674,24.503,37.77,24,37.77z" opacity=".05"/><path d="M24,37.27c-0.44,0-0.881-0.084-1.3-0.251l-7.628-3.051c-0.955-0.382-1.572-1.293-1.572-2.321V21.354 c0-1.028,0.617-1.939,1.572-2.321l7.628-3.051c0.838-0.335,1.762-0.335,2.6,0l7.628,3.051c0.955,0.382,1.572,1.293,1.572,2.321 v10.292c0,1.028-0.617,1.939-1.572,2.321L25.3,37.019C24.881,37.186,24.44,37.27,24,37.27z" opacity=".07"/><linearGradient id="amp~lv5d4rLnGMGb5PnfLe" x1="24" x2="24" y1="28.18" y2="16.412" gradientUnits="userSpaceOnUse"><stop offset=".203" stop-color="#c2dcf3"/><stop offset="1" stop-color="#c2e3f6"/></linearGradient><path fill="url(#amp~lv5d4rLnGMGb5PnfLe)" d="M34,21.354c0-0.818-0.498-1.553-1.257-1.857l-7.629-3.051c-0.715-0.286-1.513-0.286-2.228,0 l-7.629,3.051C14.498,19.801,14,20.536,14,21.354V28h20V21.354z"/><linearGradient id="amp~lv5d4rLnGMGb5PnfLf" x1="24" x2="24" y1="34.578" y2="37.415" gradientUnits="userSpaceOnUse"><stop offset="0" stop-color="#d2d4fd"/><stop offset=".898" stop-color="#c6caed"/></linearGradient><path fill="url(#amp~lv5d4rLnGMGb5PnfLf)" d="M14,28v3.646c0,0.818,0.498,1.553,1.257,1.857l7.629,3.051c0.715,0.286,1.513,0.286,2.228,0 l7.629-3.051C33.502,33.199,34,32.464,34,31.646V28H14z"/><linearGradient id="amp~lv5d4rLnGMGb5PnfLg" x1="24.253" x2="33.908" y1="23.921" y2="32.969" gradientUnits="userSpaceOnUse"><stop offset="0" stop-color="#8bbee9"/><stop offset=".33" stop-color="#97baed"/><stop offset=".915" stop-color="#b6aef9"/></linearGradient><path fill="url(#amp~lv5d4rLnGMGb5PnfLg)" d="M32.629,20.549l-7.371,2.949C24.498,23.801,24,24.536,24,25.354v9.8 c0,0.884,0.893,1.489,1.714,1.161l7.029-2.811C33.502,33.199,34,32.464,34,31.646V21.477C34,20.77,33.285,20.286,32.629,20.549z"/><linearGradient id="amp~lv5d4rLnGMGb5PnfLh" x1="-258.371" x2="-247.251" y1="24.919" y2="32.091" gradientTransform="matrix(-1 0 0 1 -234 0)" gradientUnits="userSpaceOnUse"><stop offset="0" stop-color="#e9f2fb"/><stop offset=".257" stop-color="#ddebfa"/><stop offset=".719" stop-color="#bdd8f9"/><stop offset=".915" stop-color="#aecff8"/></linearGradient><path fill="url(#amp~lv5d4rLnGMGb5PnfLh)" d="M15.371,20.549l7.371,2.949C23.502,23.801,24,24.536,24,25.354v9.8 c0,0.884-0.893,1.489-1.714,1.161l-7.029-2.811C14.498,33.199,14,32.464,14,31.646V21.477C14,20.77,14.715,20.286,15.371,20.549z"/></g></svg>